<?xml version="1.0" encoding="UTF-8"?>
<!DOCTYPE svg PUBLIC "-//W3C//DTD SVG 1.1//EN" "http://www.w3.org/Graphics/SVG/1.1/DTD/svg11.dtd">
<!-- Creator: CorelDRAW -->
<svg xmlns="http://www.w3.org/2000/svg" xml:space="preserve" width="6.82666in" height="6.82666in" style="shape-rendering:geometricPrecision; text-rendering:geometricPrecision; image-rendering:optimizeQuality; fill-rule:evenodd; clip-rule:evenodd"
viewBox="0 0 6.82666 6.82666"
 xmlns:xlink="http://www.w3.org/1999/xlink">
 <defs>
  <style type="text/css">
   <![CDATA[
    .fil2 {fill:none}
    .fil1 {fill:#1E88E5}
    .fil0 {fill:#42A5F5}
    .fil3 {fill:#FF6F00}
    .fil4 {fill:#FF7A0D}
    .fil6 {fill:#FFA000}
    .fil5 {fill:#FFB300}
   ]]>
  </style>
   <clipPath id="id0">
    <path d="M3.41333 -3.93701e-006c1.88513,0 3.41333,1.5282 3.41333,3.41333 0,1.88513 -1.5282,3.41333 -3.41333,3.41333 -1.88513,0 -3.41333,-1.5282 -3.41333,-3.41333 0,-1.88513 1.5282,-3.41333 3.41333,-3.41333z"/>
   </clipPath>
 </defs>
 <g id="Layer_x0020_1">
  <metadata id="CorelCorpID_0Corel-Layer"/>
  <path class="fil0" d="M3.41333 -3.93701e-006c1.88513,0 3.41333,1.5282 3.41333,3.41333 0,1.88513 -1.5282,3.41333 -3.41333,3.41333 -1.88513,0 -3.41333,-1.5282 -3.41333,-3.41333 0,-1.88513 1.5282,-3.41333 3.41333,-3.41333z"/>
  <g style="clip-path:url(#id0)">
   <g id="_457199024">
    <g>
     <polygon id="_4432843121" class="fil1" points="4.37328,1.73342 8.15955,5.51969 8.16284,6.2593 4.37657,2.47302 "/>
     <polygon id="_443284384" class="fil1" points="4.37657,2.47302 8.16284,6.2593 7.52068,5.89234 3.73441,2.10607 "/>
     <polygon id="_443286976" class="fil1" points="3.42955,2.06731 7.21582,5.85358 6.50226,6.04819 2.716,2.26192 "/>
     <polygon id="_443286664" class="fil1" points="2.06731,3.39711 5.85358,7.18338 6.04819,7.89694 2.26192,4.11067 "/>
     <polygon id="_443286736" class="fil1" points="2.47302,2.45009 6.25929,6.23636 5.89234,6.87852 2.10607,3.09225 "/>
     <polygon id="_443286688" class="fil1" points="4.24848,2.61479 8.03474,6.40106 8.07246,6.4424 8.10825,6.48569 8.14201,6.53086 8.17365,6.57787 8.2031,6.62666 8.23025,6.67719 8.25502,6.7294 8.27732,6.78325 8.29706,6.83867 8.31415,6.89563 8.32835,6.95339 8.33948,7.01116 8.3476,7.06887 8.35277,7.12643 8.35503,7.18375 8.35444,7.24073 8.35104,7.2973 8.34489,7.35335 8.33603,7.40881 8.32452,7.46358 8.31042,7.51758 8.29376,7.5707 8.2746,7.62288 8.253,7.674 8.229,7.724 8.20265,7.77277 8.174,7.82023 8.14312,7.8663 8.11004,7.91087 8.07481,7.95386 8.0375,7.99518 7.99815,8.03475 7.9568,8.07247 7.91352,8.10825 7.86835,8.14201 7.82134,8.17366 7.77254,8.2031 7.72202,8.23025 7.6698,8.25502 7.61596,8.27732 7.56053,8.29707 7.50357,8.31416 7.44798,8.32787 7.39236,8.33876 7.33679,8.34684 7.28136,8.35219 7.22614,8.35483 7.17121,8.35482 7.11665,8.3522 7.06254,8.34701 7.00896,8.33931 6.95599,8.32913 6.90371,8.31653 6.8522,8.30154 6.80154,8.28422 6.7518,8.2646 6.70307,8.24274 6.65543,8.21868 6.60895,8.19246 6.56372,8.16414 6.51982,8.13374 6.47731,8.10133 6.4363,8.06695 2.65003,4.28068 2.69105,4.31506 2.73355,4.34747 2.77746,4.37787 2.82269,4.40619 2.86916,4.43241 2.91681,4.45647 2.96554,4.47833 3.01527,4.49794 3.06593,4.51527 3.11744,4.53026 3.16972,4.54286 3.22269,4.55304 3.27627,4.56074 3.33038,4.56593 3.38494,4.56855 3.43987,4.56856 3.49509,4.56592 3.55052,4.56057 3.60609,4.55248 3.66171,4.5416 3.7173,4.52789 3.77426,4.5108 3.82969,4.49105 3.88353,4.46875 3.93575,4.44398 3.98628,4.41683 4.03507,4.38739 4.08208,4.35574 4.12725,4.32198 4.17053,4.2862 4.21188,4.24848 4.25123,4.20891 4.28855,4.16759 4.32377,4.12459 4.35685,4.08002 4.38774,4.03396 4.41638,3.9865 4.44273,3.93773 4.46673,3.88773 4.48833,3.83661 4.50749,3.78443 4.52415,3.73131 4.53826,3.67731 4.54976,3.62254 4.55862,3.56708 4.56477,3.51103 4.56817,3.45446 4.56876,3.39748 4.5665,3.34016 4.56133,3.2826 4.55321,3.22489 4.54208,3.16711 4.52789,3.10936 4.5108,3.0524 4.49105,2.99698 4.46875,2.94313 4.44398,2.89092 4.41683,2.84039 4.38739,2.79159 4.35574,2.74459 4.32198,2.69941 4.2862,2.65613 "/>
     <polygon id="_443286760" class="fil1" points="5.09325,4.37328 8.87952,8.15955 8.13991,8.16285 4.35364,4.37657 "/>
     <polygon id="_443286832" class="fil1" points="2.26192,4.11067 6.04819,7.89694 5.33293,7.70869 1.54667,3.92242 "/>
     <polygon id="_443286880" class="fil1" points="4.11067,4.56474 7.89693,8.35101 7.70869,9.06627 3.92242,5.28 "/>
     <polygon id="_443287000" class="fil1" points="5.28,2.90424 9.06627,6.69051 8.54562,7.21582 4.75935,3.42955 "/>
     <polygon id="_443287072" class="fil1" points="3.09225,4.72059 6.87852,8.50686 6.23965,8.87952 2.45338,5.09324 "/>
     <polygon id="_443286520" class="fil1" points="4.72059,3.73441 8.50686,7.52068 8.87952,8.15955 5.09325,4.37328 "/>
    </g>
    <path id="_457199384" class="fil1" d="M4.37328 1.73342l0.00329134 0.739606 -0.642165 -0.366953 0.638874 -0.372654zm0.191457 0.982579l0.71526 0.188244 -0.52065 0.525311 -0.19461 -0.713555zm-1.45538 -0.41722c0.615551,-0.167874 1.25065,0.195035 1.41852,0.810587 0.167878,0.615551 -0.195031,1.25065 -0.810587,1.41852 -0.592555,0.161606 -1.20322,-0.168657 -1.39778,-0.742669 -0.00755118,-0.0222756 -0.0144764,-0.0449213 -0.020748,-0.0679173 -0.167878,-0.615551 0.195031,-1.25065 0.810587,-1.41852zm-0.205122 -0.75211l0.525311 0.520646 -0.713555 0.19461 0.188244 -0.715256zm1.81635 2.18774l0.372654 0.63887 -0.73961 0.00329528 0.366957 -0.642165zm-2.27051 0.619228l0.642165 0.366953 -0.63887 0.372654 -0.00329528 -0.739606zm1.66058 0.211102l-0.188244 0.715256 -0.525311 -0.52065 0.713555 -0.194606zm-2.04335 -1.16763l0.194606 0.713555 -0.715256 -0.188244 0.52065 -0.525311zm-0.333894 -0.943732l0.739602 -0.00329134 -0.366949 0.642165 -0.372654 -0.638874z"/>
   </g>
  </g>
  <path class="fil2" d="M3.41333 -3.93701e-006c1.88513,0 3.41333,1.5282 3.41333,3.41333 0,1.88513 -1.5282,3.41333 -3.41333,3.41333 -1.88513,0 -3.41333,-1.5282 -3.41333,-3.41333 0,-1.88513 1.5282,-3.41333 3.41333,-3.41333z"/>
  <circle class="fil3" transform="matrix(0.746355 -0.203551 0.203551 0.746355 3.41333 3.41333)" r="1.49333"/>
  <path class="fil4" d="M3.10936 2.29878c0.101524,-0.027685 0.203571,-0.0408465 0.303972,-0.0409055l0 2.31093c-0.508358,0.000299213 -0.97437,-0.337465 -1.11456,-0.851496 -0.167878,-0.615551 0.195031,-1.25065 0.810587,-1.41852z"/>
  <polygon class="fil5" points="2.90424,1.54667 3.42955,2.06731 2.716,2.26192 "/>
  <polygon class="fil6" points="3.92242,5.28 4.11067,4.56474 3.39711,4.75935 "/>
  <polygon class="fil6" points="4.37328,1.73342 4.37658,2.47302 3.73441,2.10607 "/>
  <polygon class="fil5" points="2.45338,5.09324 3.09225,4.72059 2.45009,4.35364 "/>
  <polygon class="fil6" points="5.28,2.90424 4.75935,3.42955 4.56474,2.716 "/>
  <polygon class="fil5" points="1.54667,3.92242 2.26192,4.11067 2.06731,3.39711 "/>
  <polygon class="fil6" points="5.09324,4.37328 4.35364,4.37657 4.72059,3.73441 "/>
  <polygon class="fil5" points="1.73342,2.45338 2.10607,3.09225 2.47302,2.45008 "/>
 </g>
</svg>
